<?xml version="1.0" encoding="UTF-8" standalone="no"?>
<svg
   viewBox="0 0 400 400"
   width="400"
   height="400"
   version="1.1"
   id="svg3"
   sodipodi:docname="logo-white.svg"
   inkscape:version="1.4.3 (0d15f75, 2025-12-25)"
   xmlns:inkscape="http://www.inkscape.org/namespaces/inkscape"
   xmlns:sodipodi="http://sodipodi.sourceforge.net/DTD/sodipodi-0.dtd"
   xmlns="http://www.w3.org/2000/svg"
   xmlns:svg="http://www.w3.org/2000/svg">
  <defs
     id="defs3" />
  <sodipodi:namedview
     id="namedview3"
     pagecolor="#ffffff"
     bordercolor="#000000"
     borderopacity="0.25"
     inkscape:showpageshadow="2"
     inkscape:pageopacity="0.0"
     inkscape:pagecheckerboard="0"
     inkscape:deskcolor="#d1d1d1"
     showguides="true"
     inkscape:zoom="2.18"
     inkscape:cx="193.11927"
     inkscape:cy="247.01835"
     inkscape:window-width="2880"
     inkscape:window-height="1496"
     inkscape:window-x="-12"
     inkscape:window-y="-12"
     inkscape:window-maximized="1"
     inkscape:current-layer="g1" />
  <g
     id="g1"
     transform="translate(12.479749,0.35)">
    <path
       d="M 214.30873,20.393119 A 163.35,163.35 0 0 0 65.959122,115.35992 L 126.56263,99.107959 62.00795,201.71148 l 50.83007,-13.63281 43.12305,-11.56446 c 0.2981,-20.61248 11.54206,-40.91594 29.875,-52.21679 33.65958,-20.74857 78.06314,-6.93864 97.82617,26.22656 23.29004,39.08405 7.15787,90.09747 -31.38672,112.48047 -34.30404,19.92051 -76.41494,13.51376 -105.36133,-10.58985 l -36.23828,57.59571 A 163.35,163.35 0 0 0 214.30873,347.09234 163.35,163.35 0 0 0 377.65834,183.74273 163.35,163.35 0 0 0 214.30873,20.393119 Z"
       style="fill:#ffffff;stroke-width:0.379616;stroke-linejoin:round"
       id="path21" />
    <g
       id="g2"
       transform="matrix(0.71851543,0,0,0.68941133,-23.79697,-71.896913)">
      <path
         d="M 36,451 256,392 133,479 Z"
         fill="#ff473a"
         id="path2-5-1" />
      <path
         d="M 133,479 105,632 256,392 Z"
         fill="#c91f16"
         id="path3-1-5" />
    </g>
  </g>
</svg>
